<?xml version="1.0" encoding="UTF-8" standalone="no"?>
<svg
   xmlns:dc="http://purl.org/dc/elements/1.1/"
   xmlns:cc="http://creativecommons.org/ns#"
   xmlns:rdf="http://www.w3.org/1999/02/22-rdf-syntax-ns#"
   xmlns:svg="http://www.w3.org/2000/svg"
   xmlns="http://www.w3.org/2000/svg"
   xmlns:sodipodi="http://sodipodi.sourceforge.net/DTD/sodipodi-0.dtd"
   xmlns:inkscape="http://www.inkscape.org/namespaces/inkscape"
   width="210mm"
   height="297mm"
   viewBox="0 0 210 297"
   version="1.1"
   id="svg2150"
   inkscape:version="1.0.2 (e86c8708, 2021-01-15)"
   sodipodi:docname="title.svg"
   inkscape:export-filename="/Users/bghill/Documents/Work/DH/CAIRO/Logo/Title.png"
   inkscape:export-xdpi="96"
   inkscape:export-ydpi="96">
  <defs
     id="defs2144">
    <rect
       x="16.890762"
       y="29.721244"
       width="149.90551"
       height="28.746777"
       id="rect16" />
  </defs>
  <sodipodi:namedview
     id="base"
     pagecolor="#ffffff"
     bordercolor="#666666"
     borderopacity="1.0"
     inkscape:pageopacity="0.0"
     inkscape:pageshadow="2"
     inkscape:zoom="3.5470329"
     inkscape:cx="399.43615"
     inkscape:cy="563.38311"
     inkscape:document-units="mm"
     inkscape:current-layer="layer1"
     inkscape:document-rotation="0"
     showgrid="false"
     inkscape:window-width="3840"
     inkscape:window-height="2089"
     inkscape:window-x="0"
     inkscape:window-y="25"
     inkscape:window-maximized="0" />
  <metadata
     id="metadata2147">
    <rdf:RDF>
      <cc:Work
         rdf:about="">
        <dc:format>image/svg+xml</dc:format>
        <dc:type
           rdf:resource="http://purl.org/dc/dcmitype/StillImage" />
        <dc:title />
      </cc:Work>
    </rdf:RDF>
  </metadata>
  <g
     inkscape:label="Layer 1"
     inkscape:groupmode="layer"
     id="layer1">
    <g
       inkscape:label="Layer 1"
       id="layer1-4"
       transform="translate(149.74421,165.60123)">
      <g
         id="g953"
         transform="translate(-141.18374,-57.135293)">
        <path
           style="fill:#00664f;fill-opacity:1;stroke-width:0.0777046"
           d="m 152.73325,55.970431 c -0.16554,-0.0277 -0.59822,-0.09122 -0.96148,-0.141237 -1.187,-0.163321 -1.71208,-0.309125 -1.78511,-0.495677 -0.41688,-1.06504 -0.5928,-2.211394 -0.71103,-4.633339 -0.0675,-1.38268 -0.0671,-2.088233 0.002,-2.916542 0.0964,-1.161257 0.1339,-1.337357 0.59467,-2.796905 0.24593,-0.778972 0.29525,-1.04757 0.29967,-1.631799 0.004,-0.594446 -0.0232,-0.755365 -0.18462,-1.072855 -0.71504,-1.406433 -3.38706,-3.282469 -7.92841,-5.566561 -1.00433,-0.505133 -2.19322,-1.084508 -2.64196,-1.287499 -0.44875,-0.202992 -0.84598,-0.396304 -0.88274,-0.429583 -0.12824,-0.116091 0.51348,-1.795284 1.1272,-2.949539 0.21588,-0.406007 0.58523,-1.029129 0.82079,-1.384716 0.47251,-0.713305 1.40843,-1.801177 1.54958,-1.801177 0.0494,0 0.45175,0.238227 0.8939,0.529397 0.44214,0.291168 1.45078,0.926565 2.24142,1.411994 1.77719,1.091133 2.79589,1.778686 3.65107,2.46423 2.3012,1.844744 3.10924,3.122019 3.10924,4.914835 0,1.194059 0.31226,1.54673 1.4332,1.618667 1.08597,0.0697 2.1975,-0.423958 3.20854,-1.424974 0.69802,-0.691095 1.03958,-1.281858 1.18525,-2.049996 0.0916,-0.483058 -0.042,-1.163903 -0.31518,-1.60591 -0.30492,-0.493352 -0.94274,-0.987803 -1.63217,-1.265253 -1.07627,-0.433132 -2.09724,-1.070291 -5.12291,-3.197063 -1.87972,-1.321264 -2.77518,-1.908594 -4.5013,-2.952399 -0.74485,-0.450412 -1.36585,-0.853724 -1.38003,-0.89625 -0.0657,-0.197011 2.26039,-1.462178 3.62789,-1.973236 0.77719,-0.290454 0.82512,-0.298954 1.01017,-0.179197 0.23324,0.150949 2.54874,2.092685 4.4234,3.709378 0.74473,0.642258 1.58394,1.358184 1.86492,1.590946 0.28095,0.232761 0.9654,0.826478 1.52099,1.319371 2.03456,1.804963 2.90648,2.851103 3.22971,3.875014 0.2344,0.742562 0.28305,1.95413 0.11454,2.852227 -0.0721,0.384638 -0.1625,1.102932 -0.20071,1.596209 -0.0382,0.493276 -0.19747,1.647191 -0.3539,2.564255 -0.37608,2.204656 -0.43203,3.7964 -0.19789,5.63033 0.0873,0.683802 0.18164,1.523011 0.20964,1.864909 0.0676,0.825458 -0.10844,4.868691 -0.23348,5.361631 -0.0916,0.361461 -0.12345,0.397818 -0.45601,0.522001 -0.2749,0.102685 -0.37162,0.111634 -0.41877,0.03885 -0.0338,-0.05205 -0.0512,-2.647235 -0.0387,-5.767077 l 0.0226,-5.672443 0.22991,-0.861187 c 0.35856,-1.343091 0.31447,-1.641283 -0.38264,-2.587726 -0.20824,-0.282715 -0.45076,-0.657206 -0.53894,-0.832203 -0.20358,-0.403992 -0.66062,-0.808543 -0.91349,-0.808543 -0.21943,0 -0.68821,0.221982 -1.17964,0.558613 -0.18189,0.124591 -0.60149,0.355834 -0.93246,0.513875 -0.56507,0.269829 -0.64202,0.286197 -1.26223,0.26852 -0.83764,-0.02387 -1.26647,0.08701 -1.52505,0.394304 -0.15639,0.18586 -0.1908,0.293621 -0.15809,0.495139 0.10109,0.622676 0.60914,0.962292 1.7316,1.157408 0.81294,0.141315 1.24353,0.35634 1.46279,0.730492 0.15014,0.256193 0.16278,0.445465 0.21797,3.263598 0.0588,3.000459 0.14076,4.317156 0.48831,7.839643 0.1029,1.042382 0.17113,1.920912 0.15173,1.952301 -0.0193,0.03138 -0.22823,0.07899 -0.46408,0.105715 -0.23584,0.02672 -0.61238,0.06957 -0.83675,0.09533 l -0.40796,0.04675 -0.0273,-4.106781 c -0.0341,-5.107341 0.0319,-6.287969 0.41762,-7.481488 0.34478,-1.066483 0.35247,-1.420432 0.0373,-1.71485 -0.13712,-0.128093 -0.40093,-0.257233 -0.64106,-0.313823 -0.22443,-0.05289 -0.57545,-0.161289 -0.78003,-0.24089 -0.9654,-0.375621 -1.20084,0.04958 -0.78037,1.409365 0.184,0.595075 0.20607,0.799018 0.22279,2.059175 0.009,0.769277 0.0571,1.940675 0.10419,2.603108 0.047,0.662429 0.13884,2.498208 0.20385,4.079493 0.065,1.581297 0.12654,3.057994 0.13674,3.281563 l 0.0186,0.406496 -0.24294,-0.01796 c -0.13362,-0.0098 -0.3784,-0.04057 -0.54394,-0.06828 z m 6.53871,-18.342008 c 0.32761,-0.257695 0.81422,-1.35425 0.81422,-1.83481 0,-0.583846 -0.27971,-1.228423 -0.73662,-1.697549 -0.42756,-0.438985 -0.95528,-0.668451 -1.19381,-0.519098 -0.18156,0.113678 -0.20242,0.583387 -0.0564,1.269299 0.0853,0.40076 0.11766,0.889932 0.10354,1.566171 -0.0198,0.947275 -0.0137,0.990788 0.16789,1.184997 0.23697,0.25362 0.60218,0.266179 0.90116,0.03099 z m -2.24634,18.03627 c -0.0915,-0.286565 -0.52083,-4.124645 -0.49938,-4.464294 0.0168,-0.267704 0.079,0.06611 0.20267,1.090576 0.098,0.812018 0.2484,1.89252 0.33408,2.401116 0.10549,0.626569 0.13031,0.950215 0.0768,1.003732 -0.0535,0.05356 -0.0903,0.0435 -0.11416,-0.03116 z m -0.56935,-5.471748 c 5.9e-4,-0.21369 0.0157,-0.291876 0.0336,-0.173762 0.0179,0.118114 0.0175,0.292947 -0.001,0.388523 -0.0185,0.09555 -0.0331,-0.0011 -0.0325,-0.214761 z M 155.9784,43.16067 c -0.006,-0.10684 -0.0307,-0.281679 -0.0527,-0.388524 l -0.04,-0.194261 0.0834,0.19127 c 0.0459,0.105195 0.0696,0.280034 0.0527,0.388523 l -0.0307,0.197254 z m -2.59106,-4.948345 c -0.19162,-0.05039 -0.40032,-0.435936 -0.64434,-1.190327 -0.34851,-1.077367 -0.77604,-1.82263 -1.40837,-2.454948 -0.91489,-0.914893 -5.02413,-3.914045 -7.58916,-5.538996 -1.02175,-0.647284 -1.25028,-0.843132 -1.0381,-0.889649 0.0341,-0.0075 0.70877,0.440974 1.49924,0.996563 4.06753,2.858932 4.8084,3.386037 5.73909,4.083177 1.55922,1.167928 1.95963,1.567479 2.37994,2.374878 0.19779,0.379928 0.48985,1.031608 0.64901,1.448175 0.19651,0.514332 0.36165,0.8182 0.51456,0.946866 0.31474,0.264829 0.28673,0.326458 -0.10191,0.224261 z"
           id="path955" />
        <path
           style="display:none;fill:#9ac4e6;stroke-width:0.264583"
           d="m 119.49117,106.31468 c -2.12639,-0.19494 -3.62794,-0.46632 -5.87572,-1.06194 -0.90081,-0.2387 -1.0184,-0.38359 -1.43983,-1.77412 -0.2524,-0.8328 -0.5697,-1.66301 -0.70512,-1.84492 -0.19434,-0.26105 -6.31535,-0.33072 -29.053395,-0.33072 H 53.609917 V 58.711504 16.120032 l 14.821453,-0.07259 14.821453,-0.07259 1.074135,-1.256771 c 0.590772,-0.691224 1.225616,-1.256771 1.410763,-1.256771 0.18515,0 2.316205,1.279922 4.73568,2.844271 2.419474,1.564349 6.504236,4.141208 9.077251,5.726353 6.192208,3.814805 10.409998,7.013927 14.149148,10.7319 4.66069,4.634299 6.08463,7.539558 6.20227,12.654494 0.10056,4.372713 0.74366,5.114962 4.59104,5.298908 1.93715,0.09262 2.57972,0.0083 4.18024,-0.548269 3.97263,-1.381543 7.60893,-4.55557 9.30531,-8.122338 1.2612,-2.651795 1.33064,-4.942837 0.21846,-7.207676 -0.92796,-1.889665 -2.85763,-3.653922 -4.87133,-4.453753 -4.08948,-1.624311 -8.12943,-4.106828 -18.01147,-11.067904 -6.46623,-4.554925 -10.84599,-7.42335 -16.394506,-10.737202 -2.364714,-1.4123265 -4.29948,-2.7328553 -4.29948,-2.9345085 0,-0.76756 5.932426,-4.2960708 10.318746,-6.13742363 3.67961,-1.54467587 5.43957,-2.00292127 6.17692,-1.60830117 0.68947,0.3689915 8.16413,6.6074484 15.7835,13.1731253 l 5.68854,4.901865 31.0224,0.07042 31.0224,0.07042 v 42.593641 42.593648 h -23.82081 c -18.82591,0 -23.84217,0.0694 -23.92269,0.33072 -0.056,0.18191 -0.17078,0.64676 -0.25497,1.03302 -0.11974,0.54938 -0.42285,0.79421 -1.39214,1.12448 -1.66257,0.56649 -2.12757,0.5327 -2.38248,-0.17312 -0.11824,-0.32742 -0.17943,-9.154697 -0.13597,-19.616166 l 0.079,-19.020854 0.7796,-3.023589 c 1.24715,-4.836933 1.11784,-5.713749 -1.33808,-9.073245 -0.69148,-0.945886 -1.50658,-2.214552 -1.81135,-2.81926 -1.31845,-2.61602 -2.74498,-2.772516 -6.035,-0.662056 -3.7665,2.416106 -4.82136,2.785993 -8.42451,2.954059 -1.74625,0.08145 -3.44016,0.295667 -3.76425,0.476031 -1.29384,0.720066 -1.48444,2.23588 -0.43757,3.480011 0.96805,1.150464 1.90735,1.570697 4.53661,2.029625 3.68314,0.642879 4.95277,1.371391 5.93437,3.405131 l 0.51082,1.058334 -0.16883,-1.058334 c -0.2595,-1.626698 -0.93631,-2.582383 -2.31477,-3.268572 -1.30408,-0.649161 -1.4261,-1.097053 -0.29887,-1.097053 1.50465,0 3.121,1.58794 3.77044,3.704167 0.27996,0.91227 0.67938,6.185456 1.49304,19.711458 0.5225,8.685925 1.68532,19.105595 2.66208,23.854253 0.1412,0.68643 0.0694,0.89033 -0.40241,1.14283 -0.80727,0.43204 -1.33412,-0.0745 -1.3345,-1.28312 -1.6e-4,-0.52789 -0.24253,-2.80526 -0.53858,-5.060838 -0.93245,-7.104001 -1.0181,-8.106174 -1.5715,-18.388541 -0.58286,-10.829841 -1.00767,-16.572529 -1.24232,-16.794213 -0.081,-0.07652 -0.0861,4.385254 -0.0114,9.915046 0.13161,9.742231 0.60347,16.584808 2.02363,29.345106 0.12812,1.15117 0.17577,2.24204 0.10588,2.42416 -0.13241,0.34505 -4.26562,0.77526 -5.77683,0.60128 l -0.79375,-0.0914 -0.21127,-7.937499 c -0.23331,-8.765366 -0.0534,-23.654954 0.32677,-27.04542 0.13692,-1.221047 0.67494,-3.437533 1.22698,-5.054799 1.32442,-3.880059 1.01229,-4.911616 -1.69177,-5.591074 -0.68102,-0.171119 -1.85649,-0.550008 -2.61216,-0.84197 -0.75567,-0.291965 -1.70817,-0.492514 -2.11667,-0.445665 -0.68659,0.07874 -0.74889,0.1821 -0.82441,1.36782 -0.0529,0.83064 0.12265,1.856266 0.49819,2.910416 0.49849,1.399249 0.60893,2.463544 0.78668,7.5809 0.11372,3.274219 0.33285,7.798594 0.48694,10.054167 0.29042,4.251203 1.088,21.787064 1.088,23.921214 v 1.2142 l -1.78594,-0.0369 c -0.98226,-0.0203 -2.79796,-0.12967 -4.03489,-0.24307 z m 24.51066,-62.670064 c 0.84916,-0.517792 2.08336,-2.747145 2.74685,-4.961681 0.28573,-0.953664 0.25569,-1.325642 -0.2384,-2.952337 -0.90802,-2.989445 -2.71042,-4.984197 -4.75087,-5.25788 l -1.10157,-0.147751 0.009,1.4239 c 0.005,0.783146 0.18402,2.138275 0.39742,3.0114 0.2909,1.19026 0.34542,2.39222 0.21789,4.803413 -0.16976,3.209753 -0.16877,3.217227 0.51661,3.902604 0.81971,0.819714 1.112,0.843378 2.20265,0.178332 z m -20.6202,1.777648 c -0.35941,-0.479827 -1.14433,-2.281084 -1.74426,-4.002789 -0.59993,-1.721707 -1.4142,-3.682246 -1.80949,-4.356748 -1.68301,-2.871843 -5.10329,-5.848027 -14.35963,-12.495167 -5.0224,-3.606671 -14.75878,-10.184901 -16.999478,-11.485424 -1.334612,-0.774621 -1.62836,-1.520007 -0.778307,-1.974942 0.388356,-0.207841 1.347579,0.353036 5.09323,2.978109 2.538121,1.778797 6.638827,4.646756 9.112685,6.373242 13.44171,9.380883 17.33782,12.575994 19.05265,15.624639 0.49112,0.873125 1.44218,2.956719 2.11347,4.630208 1.54248,3.845346 1.74914,4.14945 3.05966,4.502336 1.49849,0.4035 1.19329,0.904295 -0.60961,1.000286 -1.40128,0.07461 -1.51113,0.03369 -2.13092,-0.79375 z"
           id="path957" />
      </g>
    </g>
    <text
       xml:space="preserve"
       style="font-size:50.8px;line-height:1.25;font-family:Avenir;-inkscape-font-specification:Avenir;stroke-width:0.264583"
       x="26.765619"
       y="166.4832"
       id="text2715"><tspan
         sodipodi:role="line"
         id="tspan2713"
         x="26.765619"
         y="166.4832"
         style="fill:#6eceb2;fill-opacity:1;stroke-width:0.264583">C<tspan
   style="fill:#00664f;fill-opacity:1"
   id="tspan2717">AI</tspan>RO</tspan></text>
    <text
       xml:space="preserve"
       style="font-size:11.2889px;line-height:1.25;font-family:Barlow;-inkscape-font-specification:Barlow;stroke-width:0.264583"
       x="9.697072"
       y="179.78279"
       id="text848"><tspan
         sodipodi:role="line"
         id="tspan846"
         x="9.697072"
         y="179.78279"
         style="fill:#ffffff;stroke-width:0.264583">Center for  AI Research in Orthopaedics</tspan></text>
  </g>
</svg>
